) (`-.                           (` .-') /`           ) (`-.
       ( OO ).                          `.( OO ),'            ( OO ).
      (_/.  _)-.-'),-----. ,--.     ,--./  .--.  .-'),-----.(_/.  _)-.
         `.'  ( OO'  .-.  '|  |.-') |      |  | ( OO'  .-.  '  `.'  /
             /Y   |  | |  ||  | OO )|  |   |  |,/   |  | |  |      /
             _) |  ||  ||  |`-' ||  |.'.|  |_)_) |  ||  |      |
        .'    _) |  | |  (|  '---.'|         |    |  | |  | .'    _)
       /  .'.    `'  '-'  '|      | |   ,'.   |    `'  '-'  '/  .'.  
      '--'   '--'   `-----' `------' '--'   '--'      `-----''--'   '--'


      ▀▀▀▀▀▀▀▀▀▀▀▀▀▀▀▀▀▀▀▀▀▀▀▀▀▀▀▀▀▀▀▀▀▀▀▀▀▀▀▀▀▀▀▀▀▀▀▀▀▀▀▀▀▀▀▀▀▀▀▀▀▀▀▀▀▀▀▀▀▀

                       █░░░░░░░░░░░░░░░░░░░░░░░█
                      ██ Orphan[2009]DvDrip-LW ██
                       █░░░░░░░░░░░░░░░░░░░░░░░█

File Name    : Orphan[2009]DvDrip-LW
Type         : Movie
Format       : AVI
File Size    : 701 MB
Duration     : 02:02:16
Language     : English
Source       : DvD
Subtitles    : None
Genre        : Drama | Horror | Mystery
IMDB Link    : http://www.imdb.com/title/tt1148204/
IMDB Rating  : 7.2/10
IMDB Votes   : 7,544 Votes
     ▄▄▄▄▄▄▄▄▄▄▄▄▄▄▄▄▄▄▄▄▄▄▄▄▄▄▄▄▄▄▄▄▄▄▄▄▄▄▄▄▄▄▄▄▄▄▄▄▄▄▄▄▄▄▄▄▄▄▄▄▄▄▄▄▄▄▄▄▄▄
 
                        █░░░░░░░░░░░░░░░░░░░░░░░░█
                       ██       Video Info       ██
                        █░░░░░░░░░░░░░░░░░░░░░░░░█

Format                           : MPEG-4 Visual
Format profile                   : Streaming Video@L1
Format settings, BVOP            : Yes
Format settings, QPel            : No
Format settings, GMC             : No warppoints
Format settings, Matrix          : Default (H.263)
Muxing mode                      : Packed bitstream
Codec ID                         : XVID
Codec ID/Hint                    : XviD
Duration                         : 2h 2mn
Bit rate                         : 690 Kbps
Width                            : 608 pixels
Height                           : 328 pixels
Display aspect ratio             : 1.854
Frame rate                       : 23.976 fps
Resolution                       : 24 bits
Colorimetry                      : 4:2:0
Scan type                        : Progressive
Bits/(Pixel*Frame)               : 0.144
Stream size                      : 603 MiB (86%)
Writing library                  : XviD 1.2.1
     ▄▄▄▄▄▄▄▄▄▄▄▄▄▄▄▄▄▄▄▄▄▄▄▄▄▄▄▄▄▄▄▄▄▄▄▄▄▄▄▄▄▄▄▄▄▄▄▄▄▄▄▄▄▄▄▄▄▄▄▄▄▄▄▄▄▄▄▄▄▄

                         █░░░░░░░░░░░░░░░░░░░░░░░░█
                        ██      Sound Info        ██
                         █░░░░░░░░░░░░░░░░░░░░░░░░█

Format                           : MPEG Audio
Format version                   : Version 1
Format profile                   : Layer 3
Codec ID                         : 55
Codec ID/Hint                    : MP3
Duration                         : 2h 2mn
Bit rate mode                    : Variable
Bit rate                         : 100 Kbps
Channel(s)                       : 2 channels
Sampling rate                    : 44.1 KHz
Resolution                       : 16 bits
Stream size                      : 87.5 MiB (12%)
Alignment                        : Aligned on interleaves
Interleave, duration             : 26 ms (0.63 video frame)
Interleave, preload duration     : 212 ms
    ▄▄▄▄▄▄▄▄▄▄▄▄▄▄▄▄▄▄▄▄▄▄▄▄▄▄▄▄▄▄▄▄▄▄▄▄▄▄▄▄▄▄▄▄▄▄▄▄▄▄▄▄▄▄▄▄▄▄▄▄▄▄▄▄▄▄▄▄▄▄

                          █░░░░░░░░░░░░░░░░░░░░░░░░█
                         ██          Plot          ██
                          █░░░░░░░░░░░░░░░░░░░░░░░░█

Picking up the pieces after their baby's tragic death, 
the Colemans -- Kate (Vera Farmiga) and John (Peter 
Sarsgaard) -- adopt 9-year-old Esther (Isabelle Fuhrman) 
from an orphanage, but it doesn't take long for Kate to 
see through Esther's angelic faτade. When John brushes 
aside Kate's paranoid suspicions, Esther wreaks havoc on 
the world around her in this chilling tale from director 
Jaume Collet-Serra.

Starring: Vera Farmiga, Peter Sarsgaard

Director: Jaume Collet-Serra
    ▄▄▄▄▄▄▄▄▄▄▄▄▄▄▄▄▄▄▄▄▄▄▄▄▄▄▄▄▄▄▄▄▄▄▄▄▄▄▄▄▄▄▄▄▄▄▄▄▄▄▄▄▄▄▄▄▄▄▄▄▄▄▄▄▄▄▄▄▄▄

ScreenShots 
http://imgshack.info/images/wdh90giji677lh86im3o.png 
http://imgshack.info/images/pu7wjp7nh0l7hxqj0dtp.png 
http://imgshack.info/images/fk8q5rhhjopx7fi5bfdx.png 
http://imgshack.info/images/vcx28xjjg4127sccsyww.jpg